<svg id="visual" viewBox="0 0 900 600" width="900" height="600" xmlns="http://www.w3.org/2000/svg" xmlns:xlink="http://www.w3.org/1999/xlink" version="1.1"><rect x="0" y="0" width="900" height="600" fill="#E6EAF8"></rect><defs><linearGradient id="grad1_0" x1="33.3%" y1="0%" x2="100%" y2="100%"><stop offset="20%" stop-color="#f6f8ff" stop-opacity="1"></stop><stop offset="80%" stop-color="#f6f8ff" stop-opacity="1"></stop></linearGradient></defs><defs><linearGradient id="grad1_1" x1="33.3%" y1="0%" x2="100%" y2="100%"><stop offset="20%" stop-color="#f6f8ff" stop-opacity="1"></stop><stop offset="80%" stop-color="#eef1fc" stop-opacity="1"></stop></linearGradient></defs><defs><linearGradient id="grad1_2" x1="33.3%" y1="0%" x2="100%" y2="100%"><stop offset="20%" stop-color="#e6eaf8" stop-opacity="1"></stop><stop offset="80%" stop-color="#eef1fc" stop-opacity="1"></stop></linearGradient></defs><defs><linearGradient id="grad2_0" x1="0%" y1="0%" x2="66.7%" y2="100%"><stop offset="20%" stop-color="#f6f8ff" stop-opacity="1"></stop><stop offset="80%" stop-color="#f6f8ff" stop-opacity="1"></stop></linearGradient></defs><defs><linearGradient id="grad2_1" x1="0%" y1="0%" x2="66.7%" y2="100%"><stop offset="20%" stop-color="#eef1fc" stop-opacity="1"></stop><stop offset="80%" stop-color="#f6f8ff" stop-opacity="1"></stop></linearGradient></defs><defs><linearGradient id="grad2_2" x1="0%" y1="0%" x2="66.7%" y2="100%"><stop offset="20%" stop-color="#eef1fc" stop-opacity="1"></stop><stop offset="80%" stop-color="#e6eaf8" stop-opacity="1"></stop></linearGradient></defs><g transform="translate(900, 0)"><path d="M0 459.7C-33.4 403.1 -66.7 346.5 -107.5 331C-148.4 315.4 -196.7 340.9 -246.9 339.8C-297.1 338.6 -349.2 310.8 -371.9 270.2C-394.6 229.6 -387.8 176.3 -397.5 129.2C-407.3 82 -433.5 41 -459.7 0L0 0Z" fill="#eaedfa"></path><path d="M0 306.5C-22.2 268.7 -44.5 231 -71.7 220.6C-98.9 210.3 -131.1 227.3 -164.6 226.5C-198.1 225.8 -232.8 207.2 -247.9 180.1C-263.1 153.1 -258.5 117.6 -265 86.1C-271.5 54.7 -289 27.3 -306.5 0L0 0Z" fill="#f2f4fd"></path><path d="M0 153.2C-11.1 134.4 -22.2 115.5 -35.8 110.3C-49.5 105.1 -65.6 113.6 -82.3 113.3C-99 112.9 -116.4 103.6 -124 90.1C-131.5 76.5 -129.3 58.8 -132.5 43.1C-135.8 27.3 -144.5 13.7 -153.2 0L0 0Z" fill="#f6f8ff"></path></g><g transform="translate(0, 600)"><path d="M0 -459.7C33.1 -407.7 66.2 -355.6 112.8 -347.1C159.4 -338.6 219.5 -373.7 267.4 -368.1C315.4 -362.5 351.1 -316.2 371.9 -270.2C392.7 -224.2 398.7 -178.5 410.9 -133.5C423 -88.5 441.4 -44.3 459.7 0L0 0Z" fill="#eaedfa"></path><path d="M0 -306.5C22.1 -271.8 44.1 -237.1 75.2 -231.4C106.3 -225.8 146.3 -249.1 178.3 -245.4C210.2 -241.7 234.1 -210.8 247.9 -180.1C261.8 -149.5 265.8 -119 273.9 -89C282 -59 294.2 -29.5 306.5 0L0 0Z" fill="#f2f4fd"></path><path d="M0 -153.2C11 -135.9 22.1 -118.5 37.6 -115.7C53.1 -112.9 73.2 -124.6 89.1 -122.7C105.1 -120.8 117 -105.4 124 -90.1C130.9 -74.7 132.9 -59.5 137 -44.5C141 -29.5 147.1 -14.8 153.2 0L0 0Z" fill="#f6f8ff"></path></g></svg>